<svg width="57" height="56" xmlns="http://www.w3.org/2000/svg" xmlns:xlink="http://www.w3.org/1999/xlink" xml:space="preserve" overflow="hidden"><defs><clipPath id="clip0"><rect x="257" y="163" width="57" height="56"/></clipPath></defs><g clip-path="url(#clip0)" transform="translate(-257 -163)"><path d="M55.209 22.3743C52.7042 10.7459 35.2357 0.76571 22.6079 4.08812 8.50068 7.81284 3.19262 20.0512 2.33607 24.0485-0.648907 38.1038 7.64413 49.7322 21.349 52.9249 43.9699 58.181 59.5567 42.6202 55.196 22.3743L55.196 22.3743Z" fill="#A59369" fill-rule="evenodd" transform="matrix(1 0 0 1.0053 257 163.23)"/><path d="M54.7807 19.7268C52.276 8.09836 34.8204-1.88183 22.1796 1.44057 8.0724 5.1653 2.76434 17.4037 1.92077 21.401-1.06421 35.4563 7.22883 47.0977 20.9337 50.2773 43.5546 55.5335 59.1414 39.9727 54.7807 19.7268L54.7807 19.7268Z" fill="#E0C488" fill-rule="evenodd" transform="matrix(1 0 0 1.0053 257 163.23)"/><path d="M55.235 19.623C53.9631 13.7049 48.8887 8.17623 42.5164 4.58128 36.1441 0.986339 28.487-0.687842 22.0628 1.0123 7.72199 4.78893 2.33607 17.235 1.46653 21.2971-1.57036 35.612 6.86544 47.4611 20.8299 50.7056 32.3156 53.3791 42.0102 50.7316 48.2917 44.8914 54.5731 39.0253 57.4542 29.9276 55.235 19.623L55.235 19.623ZM54.3395 19.8176C56.4809 29.7719 53.7425 38.571 47.6687 44.2295 41.582 49.901 32.1728 52.4187 21.0376 49.8361 7.57924 46.7083-0.571038 35.2876 2.36202 21.4918 3.19262 17.5594 8.42281 5.54167 22.2964 1.88183 28.5 0.246585 35.8975 1.88183 42.0622 5.37295 48.2008 8.83811 53.1195 14.1202 54.3395 19.8176L54.3395 19.8176Z" fill="#1B1719" fill-rule="evenodd" transform="matrix(1 0 0 1.0053 257 163.23)"/><path d="M26.8258 5.15232C19.1038 5.52869 13.5492 9.7985 11.3818 11.9529 7.11202 16.1967 5.45082 22.9324 6.19057 28.8245 6.74863 33.224 9.31831 37.6107 11.9399 41.0888 12.2514 41.5041 14.9768 44.4372 15.4699 43.944 17.0143 42.4126 42.0881 13.2896 43.3989 10.668 44.0738 9.34426 41.2835 8.46175 40.6216 8.17623 37.8572 7.03415 33.9768 4.81489 26.8388 5.1653L26.8388 5.1653Z" fill="#F2DDAB" fill-rule="evenodd" transform="matrix(1 0 0 1.0053 257 163.23)"/><path d="M56.2473 20.6872C53.6646 7.9556 38.8955-2.68648 22.582 0.609973 7.26776 3.69877 1.45355 17.7152 0.571038 22.1018-2.51776 37.5068 7.125 50.6407 21.2971 54.1318 32.9645 57.013 42.8149 54.1448 49.1872 47.8374 55.5594 41.5301 58.4925 31.7575 56.2473 20.6872L56.2473 20.6872ZM54.4693 21.0505C56.5847 31.4331 53.8982 40.6346 47.9153 46.5526 41.9324 52.4706 32.679 55.0663 21.7384 52.3668 8.50068 49.1093-0.519126 36.8449 2.36202 22.4522 3.17965 18.3641 8.63046 5.2821 22.9454 2.38798 38.1817-0.70082 52.0553 9.14959 54.4693 21.0505L54.4693 21.0505Z" fill="#1B1719" fill-rule="evenodd" transform="matrix(1 0 0 1.0053 257 163.23)"/><path d="M55.235 19.623C53.9631 13.7049 48.8887 8.17623 42.5164 4.58128 36.1441 0.986339 28.487-0.687842 22.0628 1.0123 7.72199 4.78893 2.33607 17.235 1.46653 21.2971-1.57036 35.612 6.86544 47.4611 20.8299 50.7056 32.3156 53.3791 42.0102 50.7316 48.2917 44.8914 54.5731 39.0253 57.4542 29.9276 55.235 19.623L55.235 19.623ZM54.3395 19.8176C56.4809 29.7719 53.7425 38.571 47.6687 44.2295 41.582 49.901 32.1728 52.4187 21.0376 49.8361 7.57924 46.7083-0.571038 35.2876 2.36202 21.4918 3.19262 17.5594 8.42281 5.54167 22.2964 1.88183 28.5 0.246585 35.8975 1.88183 42.0622 5.37295 48.2008 8.83811 53.1195 14.1202 54.3395 19.8176L54.3395 19.8176Z" fill="#1B1719" fill-rule="evenodd" transform="matrix(1 0 0 1.0053 257 163.23)"/><path d="M10.2268 45.3716C10.3825 45.1899 10.3695 44.9174 10.1878 44.7486 10.0061 44.5799 9.72063 44.5799 9.55191 44.7746 9.40915 44.9303 9.30533 45.1899 9.29235 45.5014 9.26639 45.9556 9.39617 46.5786 9.39617 46.8641 9.39617 47.1107 9.60383 47.3183 9.85041 47.3183 10.097 47.3183 10.3046 47.1107 10.3046 46.8641 10.3046 46.6175 10.2138 46.1243 10.2008 45.709 10.2008 45.5792 10.2268 45.3975 10.2268 45.3716L10.2268 45.3716Z" fill="#1B1719" fill-rule="evenodd" transform="matrix(1 0 0 1.0053 257 163.23)"/><path d="M13.4324 47.8634C13.4324 47.8634 13.4194 48.1619 13.3934 48.3695 13.3545 48.8368 13.2896 49.4208 13.3156 49.7193 13.3286 49.9269 13.3934 50.0697 13.4583 50.1346 13.5622 50.2773 13.7049 50.3292 13.8477 50.3292 14.0943 50.3292 14.3019 50.1216 14.3019 49.875 14.3019 49.7842 14.276 49.6933 14.224 49.6284 14.224 49.5246 14.224 49.278 14.237 49.0833 14.2889 48.5123 14.3538 47.8504 14.3149 47.6817 14.263 47.4351 14.0164 47.2794 13.7698 47.3313 13.5362 47.3832 13.3805 47.6168 13.4194 47.8504L13.4194 47.8504ZM14.1202 49.5376C14.0423 49.4597 13.9385 49.4467 13.8347 49.4467 13.9385 49.4467 14.0423 49.4857 14.1202 49.5376L14.1202 49.5376Z" fill="#1B1719" fill-rule="evenodd" transform="matrix(1 0 0 1.0053 257 163.23)"/><path d="M19.5321 49.875C19.3764 50.1735 19.3115 50.5888 19.3115 51.056 19.3115 51.6141 19.4023 52.237 19.4023 52.6523 19.4023 52.8989 19.61 53.1066 19.8566 53.1066 20.1031 53.1066 20.3108 52.8989 20.3108 52.6523 20.3108 52.25 20.2199 51.627 20.2199 51.056 20.2199 50.7705 20.2199 50.498 20.3238 50.3033 20.4406 50.0827 20.3627 49.8101 20.1291 49.6933 19.9085 49.5765 19.6359 49.6544 19.5191 49.888L19.5191 49.888Z" fill="#1B1719" fill-rule="evenodd" transform="matrix(1 0 0 1.0053 257 163.23)"/><path d="M26.696 51.6011C26.709 51.5102 26.696 51.4194 26.6571 51.3286 26.6052 51.2118 26.5273 51.1598 26.4624 51.1339 26.4235 51.1079 25.8395 50.9911 25.8005 51.5102 25.8005 51.6011 25.7876 52.1072 25.7876 52.237L25.7876 53.7165C25.7876 53.9631 25.9952 54.1708 26.2418 54.1708 26.4884 54.1708 26.696 53.9631 26.696 53.7165L26.696 52.237C26.696 52.1332 26.696 51.679 26.709 51.6011L26.709 51.6011ZM26.5014 51.9126C26.3975 51.9904 26.2807 52.0034 26.1769 51.9904 26.2678 52.0034 26.3586 51.9904 26.4495 51.9515 26.4624 51.9515 26.4884 51.9385 26.5014 51.9255L26.5014 51.9255ZM26.1639 51.9904 26.1639 51.9904C26.1639 51.9904 26.1639 51.9904 26.1639 51.9904L26.1639 51.9904ZM25.8525 51.7698C25.9303 51.8996 26.0342 51.9515 26.112 51.9775 26.0082 51.9515 25.9173 51.8736 25.8525 51.7698L25.8525 51.7698Z" fill="#1B1719" fill-rule="evenodd" transform="matrix(1 0 0 1.0053 257 163.23)"/><path d="M34.3661 53.5089C34.3661 53.5089 34.3142 53.2883 34.3012 53.1585 34.2493 52.6134 34.3661 51.6011 34.3921 51.4194 34.4699 51.3156 34.5089 51.1598 34.4699 51.0301 34.4051 50.7835 34.1585 50.6407 33.9119 50.7186 33.834 50.7445 33.7432 50.7835 33.6653 50.8743 33.6134 50.9392 33.5225 51.0949 33.4836 51.3286 33.3928 51.7958 33.3408 52.7432 33.4187 53.3531 33.4577 53.7425 33.5874 54.015 33.6913 54.1189 33.873 54.3005 34.1585 54.3005 34.3272 54.1189 34.4959 53.9501 34.5089 53.7036 34.3661 53.5219L34.3661 53.5219Z" fill="#1B1719" fill-rule="evenodd" transform="matrix(1 0 0 1.0053 257 163.23)"/><path d="M39.778 51.2896C39.778 51.2896 39.7391 51.6919 39.752 51.8477 39.752 51.9775 39.804 52.0813 39.8429 52.1462 39.9208 52.2889 40.0376 52.3538 40.1544 52.3798 40.2712 52.4057 40.4399 52.4057 40.6216 52.237 40.7773 52.0813 40.8033 51.8217 40.6735 51.64 40.6735 51.5102 40.6995 51.3156 40.6995 51.3026 40.6995 51.056 40.6346 50.6277 40.6086 50.2514 40.6086 50.0956 40.5827 49.9529 40.6086 49.862 40.7124 49.6284 40.6086 49.3689 40.375 49.265 40.1414 49.1612 39.8818 49.265 39.778 49.4986 39.7131 49.6414 39.6872 49.849 39.6872 50.1086 39.6872 50.498 39.778 51.0041 39.778 51.2896L39.778 51.2896ZM40.0116 51.5622 40.0116 51.5622C40.0116 51.5622 40.0116 51.5622 40.0116 51.5622L40.0116 51.5622ZM40.0376 51.5362 40.0376 51.5362C40.0376 51.5362 40.0376 51.5362 40.0376 51.5362L40.0376 51.5362Z" fill="#1B1719" fill-rule="evenodd" transform="matrix(1 0 0 1.0053 257 163.23)"/><path d="M45.9037 49.2001C45.9037 48.9536 45.8907 47.4481 45.9037 47.2275 45.9296 46.9809 45.7609 46.7473 45.5143 46.7213 45.2678 46.6954 45.0342 46.8641 45.0082 47.1107 44.9693 47.4092 44.9174 49.1612 45.0342 49.5116 45.125 49.8231 45.3716 49.888 45.5014 49.888 45.748 49.888 45.9556 49.6803 45.9556 49.4337 45.9556 49.3559 45.9296 49.278 45.8907 49.2131L45.8907 49.2131ZM45.5403 48.9665C45.5403 48.9665 45.6052 48.9665 45.6441 48.9795 45.6182 48.9795 45.5792 48.9665 45.5403 48.9665L45.5403 48.9665Z" fill="#1B1719" fill-rule="evenodd" transform="matrix(1 0 0 1.0053 257 163.23)"/><path d="M50.0307 43.5676C50.0697 43.4768 50.0956 43.3859 50.0827 43.2821 50.0437 43.0355 49.8101 42.8668 49.5635 42.9057 49.4337 42.9317 49.2261 43.0096 49.1612 43.2951 49.1353 43.4119 49.1223 43.6585 49.1353 43.9699 49.1612 44.515 49.265 45.2807 49.265 45.4495 49.265 45.696 49.4727 45.9037 49.7193 45.9037 49.9658 45.9037 50.1735 45.696 50.1735 45.4495 50.1735 45.2807 50.0697 44.4891 50.0437 43.918 50.0437 43.7883 50.0437 43.6325 50.0437 43.5676L50.0437 43.5676Z" fill="#1B1719" fill-rule="evenodd" transform="matrix(1 0 0 1.0053 257 163.23)"/><path d="M51.9775 39.4276C51.8996 39.9597 51.9775 40.5178 51.8477 41.0369 51.7828 41.2835 51.9385 41.5301 52.1721 41.5949 52.4187 41.6598 52.6653 41.5041 52.7172 41.2705 52.86 40.7254 52.7821 40.1284 52.873 39.5704 52.9119 39.3238 52.7432 39.0902 52.4836 39.0512 52.237 39.0123 52.0034 39.181 51.9645 39.4406L51.9645 39.4406Z" fill="#1B1719" fill-rule="evenodd" transform="matrix(1 0 0 1.0053 257 163.23)"/><path d="M11.5635 11.6544C13.5102 9.27937 17.4296 6.74863 20.778 5.84016 21.8552 5.54167 22.8805 5.42486 23.75 5.55465 24.5417 5.67145 25.2165 5.9959 25.6578 6.60587 26.1769 7.31967 26.2807 7.9556 26.125 8.48771 25.8914 9.27937 25.1127 9.7985 24.3859 9.92828 24.0355 9.98019 23.7111 9.95424 23.4904 9.77254 23.2698 9.59085 23.1919 9.26639 23.2568 8.79918 23.2958 8.5526 23.1271 8.31899 22.8675 8.28006 22.6209 8.24112 22.3873 8.40984 22.3484 8.65642 22.2316 9.44809 22.4392 9.99317 22.7637 10.3436 23.0881 10.681 23.5553 10.8497 24.0745 10.8497 24.7623 10.8497 25.554 10.5512 26.151 10.0191 26.6311 9.59085 26.9816 9.00683 27.0724 8.31899 27.1503 7.6571 26.9816 6.89139 26.3846 6.06079 25.2555 4.50342 23.0362 4.28279 20.5314 4.95765 17.0014 5.90506 12.9003 8.57855 10.8497 11.0704 10.694 11.265 10.7199 11.5505 10.9146 11.7063 11.1093 11.862 11.3948 11.8361 11.5505 11.6414L11.5505 11.6414Z" fill="#1B1719" fill-rule="evenodd" transform="matrix(1 0 0 1.0053 257 163.23)"/><path d="M45.4495 11.0833C43.3989 8.59153 39.2978 5.91803 35.7678 4.97063 33.263 4.29576 31.0437 4.51639 29.9146 6.07377 29.1878 7.07309 29.084 7.99454 29.3046 8.73429 29.6291 9.86339 30.7322 10.6421 31.7575 10.8108 32.3805 10.9146 32.9775 10.8108 33.3928 10.4604 33.8081 10.11 34.0676 9.53893 33.9378 8.65642 33.8989 8.40984 33.6653 8.24112 33.4187 8.28006 33.1721 8.31899 33.0034 8.5526 33.0424 8.79918 33.1072 9.26639 33.0424 9.59085 32.8087 9.77254 32.5881 9.95424 32.2507 9.99317 31.9003 9.92828 31.1865 9.81148 30.3948 9.27937 30.1612 8.48771 30.0055 7.9556 30.1223 7.31967 30.6284 6.60587 31.0697 5.9959 31.7316 5.67145 32.5362 5.55465 33.4057 5.42486 34.431 5.55465 35.5082 5.84016 38.8695 6.74863 42.776 9.27937 44.7227 11.6544 44.8784 11.849 45.1639 11.875 45.3586 11.7193 45.5533 11.5635 45.5792 11.278 45.4235 11.0833L45.4235 11.0833Z" fill="#1B1719" fill-rule="evenodd" transform="matrix(1 0 0 1.0053 257 163.23)"/><path d="M11.3299 42.4255C13.3805 44.9174 17.4816 47.5908 21.0116 48.5383 23.5164 49.2131 25.7357 48.9925 26.8648 47.4351 27.5915 46.4358 27.6954 45.5273 27.4747 44.7746 27.1503 43.6455 26.0471 42.8668 25.0219 42.6981 24.3989 42.5943 23.8019 42.7111 23.3866 43.0485 22.9713 43.3989 22.7118 43.9699 22.8415 44.8525 22.8805 45.099 23.1141 45.2678 23.3607 45.2418 23.6072 45.2029 23.776 44.9693 23.75 44.7227 23.6851 44.2555 23.75 43.931 23.9836 43.7493 24.2042 43.5676 24.5417 43.5287 24.8921 43.5936 25.6059 43.7104 26.3975 44.2425 26.6311 45.0342 26.7869 45.5663 26.6701 46.2022 26.1639 46.903 25.7227 47.513 25.0608 47.8374 24.2561 47.9542 23.3866 48.084 22.3613 47.9542 21.2842 47.6687 17.9228 46.7602 14.0164 44.2295 12.0697 41.8545 11.9139 41.6598 11.6284 41.6339 11.4337 41.7896 11.2391 41.9454 11.2131 42.2309 11.3689 42.4255L11.3689 42.4255Z" fill="#1B1719" fill-rule="evenodd" transform="matrix(1 0 0 1.0053 257 163.23)"/><path d="M45.2288 41.8415C43.2821 44.2165 39.3627 46.7473 36.0143 47.6557 34.9372 47.9413 33.9119 48.071 33.0424 47.9413 32.2507 47.8245 31.5758 47.5 31.1346 46.89 30.6284 46.1762 30.5116 45.5403 30.6673 45.0212 30.901 44.2295 31.6796 43.7104 32.4064 43.5806 32.7439 43.5287 33.0813 43.5546 33.3149 43.7363 33.5355 43.918 33.6134 44.2425 33.5485 44.7097 33.5096 44.9563 33.6783 45.1899 33.9378 45.2288 34.1844 45.2678 34.418 45.099 34.457 44.8395 34.5738 44.0478 34.3791 43.5027 34.0417 43.1523 33.7172 42.8149 33.25 42.6462 32.7309 42.6332 32.043 42.6332 31.2514 42.9317 30.6544 43.4638 30.1742 43.8921 29.8238 44.4761 29.7329 45.151 29.6551 45.8128 29.8238 46.5786 30.4208 47.4092 31.5499 48.9665 33.7691 49.1872 36.2739 48.5123 39.804 47.5649 43.9051 44.8914 45.9556 42.3996 46.1113 42.2049 46.0854 41.9194 45.8907 41.7637 45.696 41.6079 45.4105 41.6339 45.2548 41.8286L45.2548 41.8286Z" fill="#1B1719" fill-rule="evenodd" transform="matrix(1 0 0 1.0053 257 163.23)"/><path d="M22.2835 37.5587 22.2835 19.9734 19.1947 22.7247 17.7801 19.8566 22.543 15.6776 25.3463 15.6776 25.3463 37.5587 22.2835 37.5587 22.2835 37.5587Z" transform="matrix(1 0 0 1.0053 257 163.23)"/><path d="M38.584 26.6571C38.584 27.916 38.5061 29.2138 38.3634 30.5505 38.2206 31.8873 37.9351 33.1202 37.5198 34.2234 37.1045 35.3395 36.5335 36.248 35.8067 36.9618 35.0669 37.6755 34.1325 38.026 32.9775 38.026 31.8224 38.026 30.888 37.6755 30.1612 36.9618 29.4344 36.248 28.8634 35.3395 28.4481 34.2234 28.0328 33.1072 27.7473 31.8873 27.5915 30.5505 27.4488 29.2138 27.3709 27.916 27.3709 26.6571 27.3709 25.3982 27.4488 24.1004 27.5915 22.7637 27.7473 21.4269 28.0198 20.194 28.4481 19.0908 28.8634 17.9747 29.4344 17.0663 30.1612 16.3525 30.888 15.6387 31.8224 15.2883 32.9775 15.2883 34.1325 15.2883 35.0669 15.6387 35.8067 16.3525 36.5335 17.0663 37.1175 17.9747 37.5198 19.0908 37.9351 20.207 38.2077 21.4269 38.3634 22.7637 38.5191 24.1004 38.584 25.3982 38.584 26.6571L38.584 26.6571ZM35.4174 26.6571C35.4174 25.9173 35.3914 25.0738 35.3395 24.1393 35.2876 23.2049 35.1837 22.3224 35.015 21.5178 34.8463 20.7001 34.5997 20.0123 34.2753 19.4413 33.9508 18.8702 33.5225 18.5977 32.9775 18.5977 32.4324 18.5977 32.0041 18.8832 31.6796 19.4413 31.3552 20.0123 31.1086 20.7001 30.9529 21.5178 30.7842 22.3354 30.6803 23.2049 30.6284 24.1393 30.5765 25.0738 30.5505 25.9173 30.5505 26.6571 30.5505 27.3969 30.5765 28.2404 30.6284 29.1749 30.6803 30.1093 30.7842 30.9918 30.9529 31.8224 31.1216 32.653 31.3682 33.3408 31.6796 33.8989 32.0041 34.457 32.4324 34.7295 32.9775 34.7295 33.5225 34.7295 33.9508 34.457 34.2753 33.8989 34.5997 33.3408 34.8463 32.653 35.015 31.8224 35.1837 31.0048 35.2876 30.1223 35.3395 29.1749 35.3914 28.2404 35.4174 27.3969 35.4174 26.6571L35.4174 26.6571Z" transform="matrix(1 0 0 1.0053 257 163.23)"/></g></svg>