<svg width="57" height="55" xmlns="http://www.w3.org/2000/svg" xmlns:xlink="http://www.w3.org/1999/xlink" xml:space="preserve" overflow="hidden"><defs><clipPath id="clip0"><rect x="187" y="163" width="57" height="55"/></clipPath></defs><g clip-path="url(#clip0)" transform="translate(-187 -163)"><path d="M54.5107 22.0913C52.0376 10.61 34.79 0.756026 22.322 4.03641 8.39317 7.71403 3.15224 19.7976 2.30652 23.7443-0.6407 37.6219 7.54744 49.1032 21.079 52.2555 43.4138 57.4451 58.8034 42.0812 54.4979 22.0913L54.4979 22.0913Z" fill="#A59369" fill-rule="evenodd" transform="matrix(1.01281 0 0 1 187 163.225)"/><path d="M54.0879 19.4773C51.6148 7.99593 34.38-1.85803 21.8991 1.42235 7.97031 5.09997 2.72938 17.1836 1.89647 21.1303-1.05075 35.0078 7.1374 46.4892 20.669 49.6414 43.0038 54.8311 58.3934 39.4671 54.0879 19.4773L54.0879 19.4773Z" fill="#E0C488" fill-rule="evenodd" transform="matrix(1.01281 0 0 1 187 163.225)"/><path d="M54.5364 19.3748C53.2806 13.5316 48.2703 8.07282 41.9786 4.52334 35.687 0.973864 28.1267-0.679142 21.7838 0.999492 7.62433 4.72836 2.30652 17.017 1.44798 21.0278-1.55049 35.1616 6.7786 46.8608 20.5665 50.0643 31.9068 52.704 41.4789 50.0899 47.6809 44.3108 53.8829 38.5189 56.7276 29.5363 54.5364 19.3619L54.5364 19.3619ZM53.6522 19.567C55.7665 29.3953 53.0628 38.0832 47.0658 43.6701 41.056 49.2698 31.7659 51.7557 20.7715 49.2057 7.48337 46.1176-0.563816 34.8413 2.33215 21.22 3.15224 17.3373 8.31628 5.47158 22.0144 1.85803 28.1395 0.243466 35.4435 1.85803 41.5302 5.30499 47.5912 8.72633 52.4477 13.9416 53.6522 19.567L53.6522 19.567Z" fill="#1B1719" fill-rule="evenodd" transform="matrix(1.01281 0 0 1 187 163.225)"/><path d="M26.4865 5.08716C18.8622 5.45876 13.3778 9.67457 11.2379 11.8017 7.02207 15.9791 5.38188 22.6423 6.11228 28.4599 6.66328 32.8038 9.20045 37.135 11.7889 40.5691 12.0964 40.9792 14.7874 43.8751 15.2743 43.3882 16.7991 41.8761 41.5558 13.1215 42.85 10.5331 43.5163 9.22608 40.7613 8.35473 40.1078 8.07282 37.3784 6.94519 33.547 4.75399 26.4993 5.08716L26.4993 5.08716Z" fill="#F2DDAB" fill-rule="evenodd" transform="matrix(1.01281 0 0 1 187 163.225)"/><path d="M55.5359 20.4255C52.9859 7.85498 38.4035-2.6525 22.2964 0.602258 7.17584 3.65199 1.43517 17.4911 0.563816 21.8222-2.48592 37.0324 7.03488 50.0002 21.0278 53.4472 32.5476 56.2919 42.2734 53.46 48.565 47.2452 54.8567 41.0176 57.7527 31.3687 55.5359 20.4383L55.5359 20.4383ZM53.7803 20.7843C55.869 31.0483 53.2165 40.1206 47.3093 45.9638 41.402 51.807 32.2656 54.3698 21.4634 51.7045 8.39317 48.4882-0.51256 36.3789 2.33215 22.1682 3.13943 18.1318 8.52131 5.2153 22.6551 2.35778 37.6988-0.691956 51.3969 9.03387 53.7803 20.7843L53.7803 20.7843Z" fill="#1B1719" fill-rule="evenodd" transform="matrix(1.01281 0 0 1 187 163.225)"/><path d="M54.5364 19.3748C53.2806 13.5316 48.2703 8.07282 41.9786 4.52334 35.687 0.973864 28.1267-0.679142 21.7838 0.999492 7.62433 4.72836 2.30652 17.017 1.44798 21.0278-1.55049 35.1616 6.7786 46.8608 20.5665 50.0643 31.9068 52.704 41.4789 50.0899 47.6809 44.3108 53.8829 38.5189 56.7276 29.5363 54.5364 19.3619L54.5364 19.3619ZM53.6522 19.567C55.7665 29.3953 53.0628 38.0832 47.0658 43.6701 41.056 49.2698 31.7659 51.7557 20.7715 49.2057 7.48337 46.1176-0.563816 34.8413 2.33215 21.22 3.15224 17.3373 8.31628 5.47158 22.0144 1.85803 28.1395 0.243466 35.4435 1.85803 41.5302 5.30499 47.5912 8.72633 52.4477 13.9416 53.6522 19.567L53.6522 19.567Z" fill="#1B1719" fill-rule="evenodd" transform="matrix(1.01281 0 0 1 187 163.225)"/><path d="M10.0974 44.7977C10.2512 44.6183 10.2384 44.3492 10.059 44.1827 9.87959 44.0161 9.59768 44.0161 9.4311 44.2083 9.29015 44.3621 9.18764 44.6183 9.17482 44.9259 9.14919 45.3744 9.27733 45.9894 9.27733 46.2713 9.27733 46.5148 9.48236 46.7198 9.72582 46.7198 9.96929 46.7198 10.1743 46.5148 10.1743 46.2713 10.1743 46.0279 10.0846 45.5409 10.0718 45.1309 10.0718 45.0028 10.0974 44.8234 10.0974 44.7977L10.0974 44.7977Z" fill="#1B1719" fill-rule="evenodd" transform="matrix(1.01281 0 0 1 187 163.225)"/><path d="M13.2625 47.258C13.2625 47.258 13.2497 47.5527 13.224 47.7578 13.1856 48.2191 13.1215 48.7957 13.1472 49.0904 13.16 49.2954 13.224 49.4364 13.2881 49.5005 13.3906 49.6286 13.5316 49.6927 13.6725 49.6927 13.916 49.6927 14.121 49.4877 14.121 49.2442 14.121 49.1545 14.0954 49.0648 14.0441 49.0007 14.0441 48.8982 14.0441 48.6547 14.057 48.4625 14.1082 47.8987 14.1723 47.2452 14.1338 47.0786 14.0826 46.8352 13.8391 46.6814 13.5956 46.7326 13.365 46.7839 13.2112 47.0145 13.2497 47.2452L13.2497 47.2452ZM13.9416 48.911C13.8647 48.8341 13.7622 48.8213 13.6597 48.8213 13.7622 48.8213 13.8647 48.8598 13.9416 48.911L13.9416 48.911Z" fill="#1B1719" fill-rule="evenodd" transform="matrix(1.01281 0 0 1 187 163.225)"/><path d="M19.2851 49.2442C19.1313 49.5389 19.0672 49.949 19.0672 50.4103 19.0672 50.9613 19.1569 51.5763 19.1569 51.9864 19.1569 52.2298 19.3619 52.4349 19.6054 52.4349 19.8489 52.4349 20.0539 52.2298 20.0539 51.9864 20.0539 51.5891 19.9642 50.9741 19.9642 50.4103 19.9642 50.1284 19.9642 49.8593 20.0667 49.667 20.182 49.4492 20.1052 49.1801 19.8745 49.0648 19.6567 48.9495 19.3876 49.0263 19.2722 49.257L19.2722 49.257Z" fill="#1B1719" fill-rule="evenodd" transform="matrix(1.01281 0 0 1 187 163.225)"/><path d="M26.3584 50.9484C26.3712 50.8587 26.3584 50.7691 26.3199 50.6794 26.2687 50.564 26.1918 50.5128 26.1277 50.4871 26.0893 50.4615 25.5127 50.3462 25.4742 50.8587 25.4742 50.9484 25.4614 51.4482 25.4614 51.5763L25.4614 53.0371C25.4614 53.2806 25.6664 53.4856 25.9099 53.4856 26.1534 53.4856 26.3584 53.2806 26.3584 53.0371L26.3584 51.5763C26.3584 51.4738 26.3584 51.0253 26.3712 50.9484L26.3712 50.9484ZM26.1662 51.256C26.0637 51.3329 25.9483 51.3457 25.8458 51.3329 25.9355 51.3457 26.0252 51.3329 26.1149 51.2944 26.1277 51.2944 26.1534 51.2816 26.1662 51.2688L26.1662 51.2688ZM25.833 51.3329 25.833 51.3329C25.833 51.3329 25.833 51.3329 25.833 51.3329L25.833 51.3329ZM25.5255 51.115C25.6024 51.2432 25.7049 51.2944 25.7818 51.3201 25.6792 51.2944 25.5896 51.2175 25.5255 51.115L25.5255 51.115Z" fill="#1B1719" fill-rule="evenodd" transform="matrix(1.01281 0 0 1 187 163.225)"/><path d="M33.9315 52.8321C33.9315 52.8321 33.8802 52.6143 33.8674 52.4861 33.8161 51.9479 33.9315 50.9484 33.9571 50.7691 34.034 50.6665 34.0724 50.5128 34.034 50.3718 33.9699 50.1284 33.7264 49.9874 33.483 50.0643 33.4061 50.0899 33.3164 50.1284 33.2395 50.218 33.1882 50.2821 33.0986 50.4359 33.0601 50.6665 32.9704 51.1278 32.9192 52.0633 32.996 52.6655 33.0345 53.0371 33.1626 53.319 33.2651 53.4215 33.4445 53.6009 33.7264 53.6009 33.893 53.4215 34.0596 53.255 34.0724 53.0115 33.9315 52.8321L33.9315 52.8321Z" fill="#1B1719" fill-rule="evenodd" transform="matrix(1.01281 0 0 1 187 163.225)"/><path d="M39.2749 50.6409C39.2749 50.6409 39.2365 51.0381 39.2493 51.1919 39.2493 51.3201 39.3005 51.4226 39.339 51.4866 39.4159 51.6276 39.5312 51.6917 39.6465 51.7173 39.7618 51.7429 39.9284 51.7429 40.1078 51.5763 40.2616 51.4226 40.2872 51.1663 40.1591 50.9997 40.1591 50.8716 40.1847 50.6794 40.1847 50.6665 40.1847 50.4231 40.1206 50.0002 40.095 49.6286 40.095 49.4748 40.0694 49.3339 40.095 49.2442 40.1975 49.0135 40.095 48.7573 39.8643 48.6547 39.6337 48.5522 39.3774 48.6547 39.2749 48.8854 39.2108 49.0263 39.1852 49.2314 39.1852 49.4748 39.1852 49.8593 39.2749 50.3718 39.2749 50.6409L39.2749 50.6409ZM39.5056 50.91 39.5056 50.91C39.5056 50.91 39.5056 50.91 39.5056 50.91L39.5056 50.91ZM39.5312 50.8844 39.5312 50.8844C39.5312 50.8844 39.5312 50.8844 39.5312 50.8844L39.5312 50.8844Z" fill="#1B1719" fill-rule="evenodd" transform="matrix(1.01281 0 0 1 187 163.225)"/><path d="M45.3231 48.5779C45.3231 48.3344 45.3103 46.848 45.3231 46.6301 45.3487 46.3867 45.1821 46.156 44.9387 46.1304 44.6952 46.1048 44.4646 46.2713 44.4389 46.5148 44.4005 46.8095 44.3492 48.5394 44.4646 48.8726 44.5543 49.1801 44.7977 49.2442 44.9259 49.2442 45.1693 49.2442 45.3744 49.0392 45.3744 48.7957 45.3744 48.7188 45.3487 48.6419 45.3103 48.5779L45.3103 48.5779ZM44.9643 48.3472C44.9643 48.3472 45.0284 48.3472 45.0668 48.36 45.0412 48.36 45.0028 48.3472 44.9643 48.3472L44.9643 48.3472Z" fill="#1B1719" fill-rule="evenodd" transform="matrix(1.01281 0 0 1 187 163.225)"/><path d="M49.398 43.0166C49.4364 42.9397 49.462 42.8372 49.4492 42.7347 49.4108 42.4912 49.1801 42.3246 48.9366 42.3631 48.8085 42.3887 48.6035 42.4656 48.5394 42.7475 48.5138 42.8628 48.501 43.1063 48.5138 43.401 48.5394 43.9392 48.6419 44.6952 48.6419 44.8618 48.6419 45.1053 48.847 45.3103 49.0904 45.3103 49.3339 45.3103 49.5389 45.1053 49.5389 44.8618 49.5389 44.6952 49.4364 43.9136 49.4108 43.3498 49.4108 43.2216 49.4108 43.0807 49.4108 43.0038L49.4108 43.0038Z" fill="#1B1719" fill-rule="evenodd" transform="matrix(1.01281 0 0 1 187 163.225)"/><path d="M51.3201 38.9289C51.2432 39.4543 51.3201 39.9925 51.1919 40.5179 51.1278 40.7613 51.2816 41.0048 51.5123 41.056 51.7557 41.1201 51.9992 40.9663 52.0504 40.7357 52.1914 40.1975 52.1145 39.6081 52.2042 39.0571 52.2427 38.8136 52.0761 38.5829 51.8198 38.5445 51.5763 38.5061 51.3457 38.6855 51.3072 38.9289L51.3072 38.9289Z" fill="#1B1719" fill-rule="evenodd" transform="matrix(1.01281 0 0 1 187 163.225)"/><path d="M11.4173 11.507C13.3394 9.16201 17.2092 6.66328 20.5152 5.7663 21.5788 5.48439 22.5911 5.35625 23.4496 5.48439 24.2313 5.59972 24.8976 5.92007 25.3333 6.52232 25.8458 7.22709 25.9483 7.85498 25.7946 8.36754 25.5639 9.14919 24.7951 9.66175 24.0775 9.78989 23.7315 9.84115 23.4112 9.81552 23.1933 9.63612 22.9755 9.45673 22.8986 9.13638 22.9627 8.67508 23.0011 8.43161 22.8345 8.20096 22.5783 8.16252 22.3348 8.12407 22.1041 8.29066 22.0657 8.53412 21.9504 9.31577 22.1554 9.85396 22.4757 10.1999 22.7961 10.5331 23.2574 10.6997 23.77 10.6997 24.4491 10.6997 25.2308 10.405 25.8202 9.87959 26.2943 9.45673 26.6403 8.8801 26.73 8.20096 26.8069 7.54744 26.6403 6.79142 26.0509 5.97132 24.936 4.43364 22.7448 4.2158 20.2717 4.88213 16.7863 5.81755 12.7371 8.45724 10.7125 10.9175 10.5587 11.1097 10.5844 11.3916 10.7766 11.5454 10.9688 11.6992 11.2507 11.6735 11.4045 11.4813L11.4045 11.4813Z" fill="#1B1719" fill-rule="evenodd" transform="matrix(1.01281 0 0 1 187 163.225)"/><path d="M44.8746 10.9432C42.85 8.48287 38.8008 5.84318 35.3154 4.90776 32.8423 4.24143 30.6511 4.45927 29.5363 5.99695 28.8187 6.98363 28.7162 7.88061 28.934 8.62382 29.2544 9.73864 30.3435 10.5075 31.3558 10.6741 31.9709 10.7766 32.5604 10.6612 32.9704 10.3281 33.3805 9.9821 33.6367 9.41829 33.5086 8.54694 33.4702 8.30347 33.2395 8.13689 32.996 8.17533 32.7526 8.21377 32.586 8.44442 32.6244 8.68789 32.6885 9.14919 32.6244 9.46954 32.3938 9.64894 32.1759 9.82833 31.8428 9.86678 31.4968 9.80271 30.792 9.68738 30.0104 9.16201 29.7797 8.38035 29.626 7.85498 29.7413 7.22709 30.241 6.53514 30.6767 5.93288 31.3302 5.61253 32.1247 5.4972 32.9832 5.36906 33.9955 5.4972 35.0591 5.77911 38.3779 6.67609 42.2349 9.17482 44.157 11.5198 44.3108 11.712 44.5927 11.7376 44.7849 11.5839 44.9771 11.4301 45.0028 11.1482 44.849 10.956L44.849 10.956Z" fill="#1B1719" fill-rule="evenodd" transform="matrix(1.01281 0 0 1 187 163.225)"/><path d="M11.1866 41.889C13.2112 44.3492 17.2605 46.9889 20.7459 47.9243 23.219 48.5907 25.4102 48.3728 26.525 46.8352 27.2426 45.8485 27.3451 44.9515 27.1272 44.2083 26.8069 43.0935 25.7177 42.3246 24.7054 42.1581 24.0903 42.0555 23.5009 42.1709 23.0908 42.504 22.6808 42.85 22.4245 43.4138 22.5526 44.2852 22.5911 44.5286 22.8217 44.6952 23.0652 44.6568 23.3087 44.6183 23.4752 44.3877 23.4496 44.1442 23.3855 43.6829 23.4496 43.3626 23.6803 43.1832 23.8981 43.0038 24.2313 42.9653 24.5772 43.0294 25.282 43.1447 26.0637 43.6701 26.2943 44.4518 26.4481 44.9771 26.3328 45.605 25.833 46.3098 25.3973 46.912 24.7438 47.2324 23.9494 47.3477 23.0908 47.4759 22.0785 47.3477 21.015 47.0658 17.6961 46.1688 13.8391 43.6701 11.917 41.3251 11.7632 41.1329 11.4813 41.1073 11.2891 41.2611 11.0969 41.4148 11.0713 41.6967 11.2251 41.889L11.2251 41.889Z" fill="#1B1719" fill-rule="evenodd" transform="matrix(1.01281 0 0 1 187 163.225)"/><path d="M44.6568 41.3123C42.7347 43.6573 38.8648 46.156 35.5588 47.053 34.4953 47.3349 33.483 47.463 32.6244 47.3349 31.8428 47.2196 31.1765 46.8992 30.7408 46.297 30.241 45.5922 30.1257 44.9643 30.2795 44.4389 30.5101 43.6573 31.279 43.1447 31.9965 43.0166 32.3297 42.9653 32.6629 42.991 32.8935 43.1703 33.1114 43.3498 33.1882 43.6701 33.1242 44.1314 33.0857 44.3749 33.2523 44.6055 33.5086 44.644 33.7521 44.6824 33.9827 44.5158 34.0212 44.2724 34.1365 43.4907 33.9443 42.9525 33.6111 42.6065 33.2908 42.2734 32.8295 42.1068 32.3169 42.1068 31.6378 42.1068 30.8561 42.4015 30.2667 42.9269 29.7925 43.3498 29.4466 43.9264 29.3569 44.5927 29.28 45.2462 29.4466 46.0022 30.036 46.8223 31.1508 48.36 33.342 48.5779 35.8151 47.9115 39.3005 46.9761 43.3498 44.3364 45.3744 41.8761 45.5281 41.6839 45.5025 41.402 45.3103 41.2483 45.1181 41.0945 44.8362 41.1201 44.6824 41.3123L44.6824 41.3123Z" fill="#1B1719" fill-rule="evenodd" transform="matrix(1.01281 0 0 1 187 163.225)"/><path d="M17.7602 36.0586 17.7602 21.1047 15.1461 23.4496 13.9416 21.0021 17.9909 17.4527 20.3614 17.4527 20.3614 36.0586 17.7602 36.0586 17.7602 36.0586Z" transform="matrix(1.01281 0 0 1 187 163.225)"/><path d="M30.792 26.7556C30.792 27.8192 30.728 28.9212 30.5998 30.0616 30.4717 31.2021 30.241 32.24 29.8951 33.1882 29.5491 34.1365 29.0621 34.9053 28.4343 35.5076 27.8064 36.1098 27.0119 36.4174 26.038 36.4174 25.0642 36.4174 24.2697 36.1227 23.6546 35.5076 23.0396 34.9053 22.5526 34.1237 22.2067 33.1882 21.8479 32.24 21.6172 31.2021 21.4891 30.0616 21.3609 28.9212 21.2969 27.8192 21.2969 26.7556 21.2969 25.6921 21.3609 24.5772 21.4891 23.4496 21.6172 22.3092 21.8607 21.2712 22.2067 20.323 22.5654 19.3748 23.0524 18.6059 23.6546 17.9909 24.2697 17.3886 25.0642 17.0811 26.038 17.0811 27.0119 17.0811 27.8192 17.3758 28.4343 17.9909 29.0621 18.5931 29.5363 19.3748 29.8951 20.323 30.241 21.2712 30.4845 22.3092 30.5998 23.4496 30.728 24.5901 30.792 25.6921 30.792 26.7556L30.792 26.7556ZM28.1011 26.7556C28.1011 26.1277 28.0755 25.4102 28.037 24.6157 27.9986 23.8212 27.8961 23.078 27.7551 22.3861 27.6142 21.6941 27.4091 21.1047 27.14 20.6305 26.8709 20.1436 26.4993 19.913 26.038 19.913 25.5767 19.913 25.2179 20.1564 24.936 20.6305 24.6669 21.1175 24.4491 21.6941 24.3081 22.3861 24.1672 23.078 24.0775 23.8212 24.0262 24.6157 23.975 25.4102 23.9622 26.1277 23.9622 26.7556 23.9622 27.3835 23.9878 28.1011 24.0262 28.8956 24.0647 29.69 24.1672 30.4461 24.3081 31.138 24.4491 31.8428 24.6541 32.4322 24.936 32.8935 25.2051 33.3676 25.5767 33.5983 26.038 33.5983 26.4993 33.5983 26.8581 33.3676 27.14 32.8935 27.4091 32.4194 27.627 31.83 27.7551 31.138 27.8961 30.4332 27.9858 29.69 28.037 28.8956 28.0883 28.1011 28.1011 27.3835 28.1011 26.7556L28.1011 26.7556Z" transform="matrix(1.01281 0 0 1 187 163.225)"/><path d="M41.2226 26.7556C41.2226 27.8192 41.1586 28.9212 41.0304 30.0616 40.9023 31.2021 40.6716 32.24 40.3256 33.1882 39.9797 34.1365 39.4927 34.9053 38.8648 35.5076 38.2498 36.1098 37.4425 36.4174 36.4686 36.4174 35.4948 36.4174 34.7003 36.1227 34.0852 35.5076 33.4702 34.9053 32.9832 34.1237 32.6372 33.1882 32.2785 32.24 32.0478 31.2021 31.9197 30.0616 31.7915 28.9212 31.7275 27.8192 31.7275 26.7556 31.7275 25.6921 31.7915 24.5772 31.9197 23.4496 32.0478 22.3092 32.2913 21.2712 32.6372 20.323 32.996 19.3748 33.483 18.6059 34.0852 17.9909 34.7003 17.3886 35.4948 17.0811 36.4686 17.0811 37.4425 17.0811 38.2498 17.3758 38.8648 17.9909 39.4927 18.5931 39.9669 19.3748 40.3256 20.323 40.6716 21.2712 40.9151 22.3092 41.0304 23.4496 41.1586 24.5901 41.2226 25.6921 41.2226 26.7556L41.2226 26.7556ZM38.5317 26.7556C38.5317 26.1277 38.5061 25.4102 38.4676 24.6157 38.4164 23.8212 38.3267 23.078 38.1857 22.3861 38.0448 21.6941 37.8397 21.1047 37.5578 20.6305 37.2887 20.1436 36.9171 19.913 36.4558 19.913 35.9945 19.913 35.6357 20.1564 35.3538 20.6305 35.0847 21.1175 34.8669 21.6941 34.7387 22.3861 34.5978 23.078 34.5081 23.8212 34.4568 24.6157 34.4184 25.4102 34.3928 26.1277 34.3928 26.7556 34.3928 27.3835 34.4184 28.1011 34.4568 28.8956 34.5081 29.69 34.5978 30.4461 34.7387 31.138 34.8797 31.8428 35.0847 32.4322 35.3538 32.8935 35.6229 33.3676 35.9945 33.5983 36.4558 33.5983 36.9171 33.5983 37.2759 33.3676 37.5578 32.8935 37.8269 32.4194 38.0448 31.83 38.1857 31.138 38.3267 30.4332 38.4164 29.69 38.4676 28.8956 38.5061 28.1011 38.5317 27.3835 38.5317 26.7556L38.5317 26.7556Z" transform="matrix(1.01281 0 0 1 187 163.225)"/></g></svg>